<?xml version="1.0" encoding="UTF-8"?>
<svg xmlns="http://www.w3.org/2000/svg" viewBox="0 0 1080 1080">
  <defs>
    <style>
      .cls-1 {
        fill: #ff28cc;
        opacity: .4;
      }

      .cls-1, .cls-2, .cls-3 {
        isolation: isolate;
      }

      .cls-1, .cls-2, .cls-3, .cls-4, .cls-5, .cls-6, .cls-7 {
        stroke-width: 0px;
      }

      .cls-2 {
        fill: #fff;
      }

      .cls-3 {
        fill: #f6c;
        opacity: .4;
      }

      .cls-4 {
        fill: #ff13e4;
      }

      .cls-5 {
        fill: #c90082;
      }

      .cls-6 {
        fill: #ff68e4;
      }

      .cls-7 {
        fill: #ffb3e4;
      }
    </style>
  </defs>
  <g id="_图层_1" data-name="图层 1">
    <rect class="cls-5" width="1080" height="1080" rx="220.34" ry="220.34"/>
  </g>
  <g id="_图层_3" data-name="图层 3">
    <g>
      <path class="cls-7" d="M659.02,174.86c24.73,1.84,50.68,5.98,75.12,15.06,7.74,3.46,16.08,6.25,23.34,10.35,10.76,4.9,20.73,10.74,30.35,16.7.17.18.51.52.68.7.24.1.74.29.98.39,2.57,2.17,6.17,3.87,8.5,6.15,3.04,1.7,5.38,3.91,7.79,5.96,7.78,6.19,14.97,12.69,20.87,19.5.89,1.74,2.41,3.39,3.98,5.03,3.19,4.41,6.05,8.86,9.03,13.28,0,.16-.02.48-.03.63,1.87,2.4,2.3,4.85,3.7,7.28.63,2.3,2.3,4.66,2.41,6.93.15.18.46.53.61.71-.19,1.63,1.23,3.45,1.25,5.12.39,1.6.21,3.24,1.64,4.86,2.81.9,5.74,1.58,8.39,2.83,11.06,3.56,22.32,6.67,33.17,10.69,3.92,1.68,7.36,4.39,8.07,7.18,2.14,5.24-5.88,8.44-13.57,6.08-7.29-2.36-14.77-4.3-21.88-7.05-8.92-2.74-17.83-5.51-26.76-8.25-6.4-2.59-13.23-4.21-19.79-6.45-1.17-1.28.39-2.36.35-3.55.24-5.44,1.48-11.01-1.49-16.86l.05-.64c-.16-.18-.47-.54-.63-.71-1.98-6.58-6.82-13.16-11.57-19.61-4.94-5.79-10.34-11.51-17.11-16.7-13.41-11.48-30.59-21.27-48.66-29.34-5.26-2.96-11.83-3.69-17.08-6.57-3.7-1.06-7.43-2.7-11.19-2.91-3.06-.8-6.04-1.89-9.08-2.74-12.94-2.71-25.85-4.16-38.49-5.03-.24.03-.71.11-.94.15-10.01-.73-19.3.21-28.53,1.01-5.87.76-11.39,2.08-16.81,3.34-8.06,2.61-15.84,5.6-21.9,9.78-5.7,3.19-8.47,8-11.36,12.64-.82,1.59-.54,3.63-2.18,4.88-7-2.07-13.93-4.54-21-6.16-8.92-2.76-17.84-5.49-26.76-8.24-6.63-1.47-13.09-3.86-19.65-5.74-6.01-1.53-11.59-5.96-11.34-9.79-.5-1.89,1.38-2.96,2.7-4.15.85-.22,1.69-.44,2.42-.76,3.38-.65,7.58-.23,11.42,1.23,9.81,2.43,19.47,5.85,29.23,8.66,3.08.5,6.06,1.67,9.08,2.55,3.24-2.24,5.4-5.17,8.91-7.23.71-1.37,2.94-1.89,3.88-3.15.23-.06.69-.18.92-.24l.32-.55c5.34-3.03,10.59-6.25,17.25-8.28,7.73-3.47,17.13-5.53,26.67-7.18,10.22-1.16,20.56-2.43,31.67-2.12,4.31,0,8.69.15,13.04.35Z"/>
      <path class="cls-7" d="M704.58,213.46c16.08,4.12,32,10.68,45.45,18.97,22.47,13.48,38.59,31.81,42.78,49.09.16.18.47.54.62.72.65,4.81,1.51,9.71.94,14.29-1.62,7.08-2.88,14.31-6.89,20.58-6.53,10.54-19.02,18.7-35.38,22.77-22.16,5.88-51.45,4.11-78.42-4.74-29.53-9.3-55.75-26.99-69.1-46.35-8.28-11.83-11.9-24.26-10.12-35.27.16-1.75.91-3.35.84-5.16,2.33-2.47.97-6.13,3-8.71,2.36-5.54,5.95-10.83,11.44-14.91,1.72-1.94,4.26-3.51,6.79-4.95.1-.12.28-.38.38-.5,6.12-3.14,12.69-6.11,20.38-7.83,19.15-4.95,43.7-4.06,67.28,1.97ZM702.69,218.2c-7.06-1.62-14.18-3.13-21.16-3.71-29.21-3.12-55.69,3.83-68.44,17.88-4.32,4.74-7.28,10.22-8.2,16.2-1.58,4.23-2.69,8.65-2.36,13.36.35,19.37,18.19,41.54,45.02,56.43,12.4,6.99,26.66,12.31,41,15.61,38.11,9.28,76.23,1.37,89.63-18.23,3.37-4.16,4.61-9.18,6-14.07,6.55-17.37-4.13-39.84-26.39-57.26-14.77-11.86-34.65-21.02-55.1-26.23Z"/>
      <path class="cls-7" d="M701.19,234.41c12.66,3.27,25,8.66,35.2,15.42,13.24,8.83,22.56,20.03,25.54,30.78,2.4,9.26,1.08,18.3-4.96,25.26-10.45,13.54-37.43,18.81-64.53,12.51-18.77-3.92-37.41-12.77-49.87-24-13.86-12.24-19.67-26.94-16.14-38.85,2.21-9.11,9.99-16.64,21.48-20.88,14.17-5.38,34.17-5.34,53.29-.24ZM693.7,247.36c-21.27-4.26-41.92,2.41-43.62,15.46-4.41,11.26,7.37,26.7,25.45,35.14,8.16,3.71,17.3,6.4,26.08,7.29,14.4,1.36,27.5-2.13,33.49-9.27,2.5-2.47,2.98-5.76,3.92-8.82,2.76-12.03-10.75-27.73-30.22-35.27-4.93-1.86-9.99-3.3-15.1-4.52Z"/>
      <path class="cls-7" d="M544.81,222.38c7.93,1.68,15.65,4.95,23.53,6.7.98.59,2.16.89,3.27,1.29,6.11,2.43,9.61,7.57,8.08,11.07-1.7,2.57-6.09,4.04-11.18,3.12-2.99-.65-6.16-1.1-8.94-2.48-6.56-2.32-13.46-3.89-19.88-6.51-7.81-2.38-15.6-4.83-23.42-7.22-7.73-2.98-15.86-5.08-23.79-7.64-8.14-3.29-16.97-5.06-25.11-8.34-6.82-2.22-13.82-4.01-20.46-6.61-4-1.44-7.33-4.13-8.74-6.83-.28-1.11-.82-2.26-.27-3.21.28-.05.83-.14,1.11-.19.07-.15.21-.44.28-.59,4.66-2.34,12.12-.44,18.32,1.51,5.91,1.71,11.75,3.88,17.74,5.16,7.19,2.11,14.31,4.67,21.58,6.34,7.83,2.31,15.58,5.08,23.49,6.93,8.12,2.51,16.25,4.99,24.37,7.5Z"/>
      <path class="cls-7" d="M821.81,307.45c.97.27,1.96.58,2.94.65,7.51,2.99,15.73,4.63,23.22,7.71,8.13,2.49,16.24,5.02,24.37,7.52,7.57,2.92,15.54,4.99,23.31,7.49,6.95,2.71,14.28,4.6,21.41,6.91,7.5,3.08,15.68,4.69,23.19,7.75,4.67,1.23,8.61,4.29,10.21,7.3-.07.44.08.86.86,1.19-.08,1.09-1.18,1.73-2.02,2.48-2.68,1.44-6.94,1.79-11.06.73-6.95-1.58-13.75-4.05-20.63-6.05-8.57-1.87-16.88-5.38-25.45-7.24-7.99-2.35-15.9-5.19-23.97-7.08-7.8-2.42-15.63-4.79-23.43-7.22-6.78-1.44-13.37-4.02-20.1-5.8-2.68-.31-5.14-1.55-7.65-2.47-6.44-2.46-10.59-8.25-7.53-11.51,1.57-2.85,7.14-3.72,12.31-2.34Z"/>
      <path class="cls-7" d="M489.73,234.57c.87-4.05,8.77-4.98,15.04-2.76,6.63,2.19,13.49,3.89,19.95,6.46,9.08,2.79,18.15,5.61,27.23,8.4,6.39,2.59,13.24,4.21,19.8,6.45,1.18,1.67-.8,3.03-.58,4.66-.47,5.72-.81,11.65,2.37,17.84,1.07,2.03,1.3,4.13,3.11,6.1l-.05.64c5.17,8.19,11.15,16.44,19.83,23.96,2.21,2.58,5.84,4.66,8.31,7.16,14.19,11.28,31.58,20.86,49.95,28.76,3.32,1.52,7.03,2.2,10.46,3.5,4.39,2.23,9.49,3.7,14.36,4.39,2.74.76,5.43,1.71,8.16,2.48,20.29,4.11,40.79,6.13,59.5,4.76,3.45-.68,7.61-.35,10.9-1.24,11.4-1.34,20.98-4.79,29.87-8.65.08-.14.24-.41.32-.55,10.62-4.45,16.81-12.17,19.44-20.72.17-.04.53-.13.7-.17,6.68,1.85,13.25,4.36,19.99,5.81,9.08,2.8,18.17,5.58,27.25,8.38,6.78,1.51,13.41,3.97,20.12,5.89,6.44,1.69,12.44,6.91,10.87,10.75-.55,3.48-6.34,5.01-11.96,3.82-9.92-2.35-19.69-5.64-29.52-8.59-4.34-.82-8.55-2.44-12.82-3.68-.66.21-1.4.39-1.75.83-3.18,3.35-7.14,6.29-11.04,9.23-.21.07-.62.2-.83.27-.42.57-1.1,1.01-2,1.26-.09.13-.27.38-.36.5-4.85,2.73-9.86,5.41-15.64,7.39-7.19,2.66-14.56,5.35-23.34,6.36-6.9,1.43-14.57,1.83-21.99,2.54-1.42.12-2.84.3-4.42.03-3.19.62-7.19-.16-10.49.29-.26-.06-.78-.17-1.04-.23-.24.05-.71.15-.95.2-22.39-.79-45.85-4.12-68.79-10.36-24.87-7.62-48.19-19.11-68.9-32.07-.17-.17-.5-.53-.67-.7-.25-.1-.74-.3-.99-.4-2.48-2.23-6.22-3.84-8.51-6.15-2.28-1.11-3.79-2.72-5.56-4.13-6.88-5.31-13.02-10.91-18.85-16.6-8.76-9.57-15.7-19.54-20.46-29.56,0-.15-.01-.46-.02-.62-.61-.71-.92-1.46-.94-2.17-.13-.17-.4-.52-.54-.69-1.21-3.88-2.83-7.81-3.43-11.65-.54-1.3-.18-2.59-1.47-3.87-4.22-1.38-8.61-2.41-12.66-4.17-9.79-3.1-19.74-5.88-29.26-9.52-5.32-2.18-9.23-6.7-7.72-9.88Z"/>
    </g>
  </g>
  <g id="_图层_2" data-name="图层 2">
    <path class="cls-6" d="M664.23,307.31c24.8,9.3,37.4,37,28.1,61.8l-27.5,73.4-161.5,20.2-7.2-.9c4.6-8.8,7.2-18.9,7.2-29.6,0-35.3-28.7-64-64-64s-64,28.7-64,64c0,5.1.6,10,1.7,14.7l-65.5-8.2c-.1-2.2-.2-4.3-.2-6.5,0-70.7,57.3-128,128-128s126.2,55.6,128,124.7l35.1-93.6c9.3-24.8,37-37.4,61.8-28.1v.1ZM419.93,635.21l83.4-139,83.4,139c7.4,12.4,22.3,18.3,36.2,14.3l136.4-39v104.2c0,22-15,41.2-36.4,46.6l-204.1,51c-10.2,2.5-20.9,2.5-31,0l-204.1-51c-21.4-5.4-36.4-24.6-36.4-46.6v-104.2l136.4,39c13.9,4,28.8-1.9,36.2-14.3h0Z"/>
    <path class="cls-2" d="M200.57,557.71c-9,17.9.6,39.6,19.8,45.1l163.3,46.7c13.9,4,28.8-1.9,36.2-14.3l83.5-139-244.8-30.6c-6.7-.8-13.3,2.7-16.3,8.7l-41.7,83.4ZM806.07,557.71l-41.7-83.4c-3-6.1-9.6-9.6-16.3-8.7l-244.7,30.6,83.4,139c7.4,12.4,22.3,18.3,36.2,14.3l163.3-46.7c19.3-5.5,28.8-27.2,19.8-45.1h0Z"/>
    <path class="cls-3" d="M200.53,557.71c-9,17.9.6,39.6,19.8,45.1l163.3,46.7c13.9,4,28.8-1.9,36.2-14.3l83.5-139-244.8-30.6c-6.7-.8-13.3,2.7-16.3,8.7l-41.7,83.4ZM806.03,557.71l-41.7-83.4c-3-6.1-9.6-9.6-16.3-8.7l-244.7,30.6,83.4,139c7.4,12.4,22.3,18.3,36.2,14.3l163.3-46.7c19.3-5.5,28.8-27.2,19.8-45.1h0Z"/>
    <path class="cls-4" d="M582.69,683.99v-29.34c0,22.32,50.66,40.41,113.13,40.41s113.13-18.08,113.13-40.41v29.34c-7.53,5.96-17.17,10.71-27.68,14.44-22.68,8.08-52.88,12.78-85.46,12.78s-62.78-4.7-85.46-12.78c-10.51-3.74-20.15-8.54-27.68-14.44ZM582.69,764.8v-29.34c0,22.32,50.66,40.41,113.13,40.41s113.13-18.08,113.13-40.41v29.34c-7.53,5.96-17.17,10.71-27.68,14.44-22.68,8.08-52.88,12.78-85.46,12.78s-62.78-4.7-85.46-12.78c-10.51-3.74-20.15-8.54-27.68-14.44Z"/>
    <path class="cls-2" d="M808.96,630.41v24.24c0,22.32-50.66,40.41-113.13,40.41s-113.13-18.08-113.13-40.41v-24.24c0-22.32,50.66-40.41,113.13-40.41s113.13,18.08,113.13,40.41ZM781.28,698.44c10.51-3.74,20.15-8.54,27.68-14.44v51.47c0,22.32-50.66,40.41-113.13,40.41s-113.13-18.08-113.13-40.41v-51.47c7.53,5.96,17.17,10.71,27.68,14.44,22.68,8.08,52.88,12.78,85.46,12.78s62.78-4.7,85.46-12.78ZM582.69,764.8c7.53,5.96,17.17,10.71,27.68,14.44,22.68,8.08,52.88,12.78,85.46,12.78s62.78-4.7,85.46-12.78c10.51-3.74,20.15-8.54,27.68-14.44v43.39c0,22.32-50.66,40.41-113.13,40.41s-113.13-18.08-113.13-40.41v-43.39Z"/>
    <path class="cls-1" d="M808.96,630.66v24.24c0,22.32-50.66,40.41-113.13,40.41s-113.13-18.08-113.13-40.41v-24.24c0-22.32,50.66-40.41,113.13-40.41s113.13,18.08,113.13,40.41ZM781.28,698.69c10.51-3.74,20.15-8.54,27.68-14.44v51.47c0,22.32-50.66,40.41-113.13,40.41s-113.13-18.08-113.13-40.41v-51.47c7.53,5.96,17.17,10.71,27.68,14.44,22.68,8.08,52.88,12.78,85.46,12.78s62.78-4.7,85.46-12.78ZM582.69,765.06c7.53,5.96,17.17,10.71,27.68,14.44,22.68,8.08,52.88,12.78,85.46,12.78s62.78-4.7,85.46-12.78c10.51-3.74,20.15-8.54,27.68-14.44v43.39c0,22.32-50.66,40.41-113.13,40.41s-113.13-18.08-113.13-40.41v-43.39Z"/>
  </g>
</svg>